<svg width="40" height="40" viewBox="0 0 40 40" fill="none" xmlns="http://www.w3.org/2000/svg">
<g clip-path="url(#clip0_1_2)">
<path fill-rule="evenodd" clip-rule="evenodd" d="M33.673 13.0118L33.6173 26.5165L20.4736 33.2688V19.8134L33.673 13.0118V13.0118Z" fill="url(#paint0_linear_1_2)"/>
<path fill-rule="evenodd" clip-rule="evenodd" d="M20.4736 19.8134V33.2688L7.16287 26.5165L7.21857 13.0118L20.4736 19.8134V19.8134Z" fill="url(#paint1_linear_1_2)"/>
<path fill-rule="evenodd" clip-rule="evenodd" d="M33.673 13.0118L20.4736 19.8134L7.21857 13.0118L20.4179 6.21019L33.673 13.0118V13.0118Z" fill="url(#paint2_linear_1_2)"/>
<path fill-rule="evenodd" clip-rule="evenodd" d="M39.4095 10.2519L39.3538 29.5232L20.4737 39.2327L20.5851 19.9615L39.4095 10.2519V10.2519Z" stroke="#DBA5F5" stroke-width="0.57"/>
<path fill-rule="evenodd" clip-rule="evenodd" d="M20.5851 19.9615L20.4737 39.2327L1.53787 29.5232L1.59357 10.2519L20.5851 19.9615V19.9615Z" stroke="#DBA5F5" stroke-width="0.57"/>
<path fill-rule="evenodd" clip-rule="evenodd" d="M39.4095 10.2519L20.5851 19.9615L1.59357 10.2519L20.418 0.542366L39.4095 10.2519V10.2519Z" stroke="#DBA5F5" stroke-width="0.57"/>
<path fill-rule="evenodd" clip-rule="evenodd" d="M1.4822 10.6952C1.82054 10.6952 2.09483 10.4525 2.09483 10.153C2.09483 9.85361 1.82054 9.61088 1.4822 9.61088C1.14385 9.61088 0.869568 9.85361 0.869568 10.153C0.869568 10.4525 1.14385 10.6952 1.4822 10.6952Z" fill="#DBA5F5"/>
<path fill-rule="evenodd" clip-rule="evenodd" d="M20.418 1.08432C20.7563 1.08432 21.0306 0.841584 21.0306 0.542158C21.0306 0.242732 20.7563 0 20.418 0C20.0796 0 19.8053 0.242732 19.8053 0.542158C19.8053 0.841584 20.0796 1.08432 20.418 1.08432Z" fill="#DBA5F5"/>
<path fill-rule="evenodd" clip-rule="evenodd" d="M20.585 20.3064C20.9234 20.3064 21.1977 20.0637 21.1977 19.7643C21.1977 19.4649 20.9234 19.2221 20.585 19.2221C20.2467 19.2221 19.9724 19.4649 19.9724 19.7643C19.9724 20.0637 20.2467 20.3064 20.585 20.3064Z" fill="#DBA5F5"/>
<path fill-rule="evenodd" clip-rule="evenodd" d="M20.585 39.7746C20.9234 39.7746 21.1977 39.5319 21.1977 39.2324C21.1977 38.933 20.9234 38.6903 20.585 38.6903C20.2467 38.6903 19.9724 38.933 19.9724 39.2324C19.9724 39.5319 20.2467 39.7746 20.585 39.7746Z" fill="#DBA5F5"/>
<path fill-rule="evenodd" clip-rule="evenodd" d="M39.4096 10.794C39.7479 10.794 40.0222 10.5512 40.0222 10.2518C40.0222 9.9524 39.7479 9.70966 39.4096 9.70966C39.0712 9.70966 38.7969 9.9524 38.7969 10.2518C38.7969 10.5512 39.0712 10.794 39.4096 10.794Z" fill="#DBA5F5"/>
<path fill-rule="evenodd" clip-rule="evenodd" d="M1.4822 30.0653C1.82054 30.0653 2.09483 29.8226 2.09483 29.5232C2.09483 29.2237 1.82054 28.981 1.4822 28.981C1.14385 28.981 0.869568 29.2237 0.869568 29.5232C0.869568 29.8226 1.14385 30.0653 1.4822 30.0653Z" fill="#DBA5F5"/>
<path fill-rule="evenodd" clip-rule="evenodd" d="M39.4096 30.1145C39.7479 30.1145 40.0222 29.8718 40.0222 29.5724C40.0222 29.2729 39.7479 29.0302 39.4096 29.0302C39.0712 29.0302 38.7969 29.2729 38.7969 29.5724C38.7969 29.8718 39.0712 30.1145 39.4096 30.1145Z" fill="#DBA5F5"/>
</g>
<defs>
<linearGradient id="paint0_linear_1_2" x1="31.6356" y1="101.544" x2="16.4863" y2="104.39" gradientUnits="userSpaceOnUse">
<stop stop-color="#6979F8"/>
<stop offset="0.33" stop-color="#E1E1F2"/>
<stop offset="0.7" stop-color="#EEEEF8"/>
<stop offset="1" stop-color="white"/>
</linearGradient>
<linearGradient id="paint1_linear_1_2" x1="8.25174" y1="108.712" x2="9.53704" y2="124.919" gradientUnits="userSpaceOnUse">
<stop stop-color="#4054F2"/>
<stop offset="0.33" stop-color="#E1E1F2"/>
<stop offset="0.7" stop-color="#EEEEF8"/>
<stop offset="1" stop-color="white"/>
</linearGradient>
<linearGradient id="paint2_linear_1_2" x1="2.31401" y1="112.194" x2="1.97059" y2="131.763" gradientUnits="userSpaceOnUse">
<stop stop-color="#6979F8"/>
<stop offset="0.33" stop-color="#E1E1F2"/>
<stop offset="0.7" stop-color="#EEEEF8"/>
<stop offset="1" stop-color="white"/>
</linearGradient>
<clipPath id="clip0_1_2">
<rect width="40" height="40" fill="white"/>
</clipPath>
</defs>
</svg>
