<svg width="250" height="250" viewBox="0 0 250 250" fill="none" xmlns="http://www.w3.org/2000/svg">
<g clip-path="url(#clip0_1_2)">
<circle cx="125" cy="125" r="125" fill="#80A9DA"/>
<path d="M146.58 89.6364H156.795V145.494C156.795 151.261 155.436 156.411 152.717 160.942C150.026 165.446 146.223 169.002 141.307 171.611C136.391 174.192 130.624 175.483 124.006 175.483C117.387 175.483 111.62 174.192 106.705 171.611C101.789 169.002 97.9716 165.446 95.2528 160.942C92.5616 156.411 91.2159 151.261 91.2159 145.494V89.6364H101.432V144.67C101.432 148.79 102.338 152.456 104.151 155.669C105.963 158.855 108.545 161.367 111.895 163.207C115.273 165.02 119.31 165.926 124.006 165.926C128.702 165.926 132.739 165.02 136.116 163.207C139.494 161.367 142.076 158.855 143.861 155.669C145.673 152.456 146.58 148.79 146.58 144.67V89.6364Z" fill="#4781C6"/>
</g>
<defs>
<clipPath id="clip0_1_2">
<rect width="250" height="250" fill="white"/>
</clipPath>
</defs>
</svg>
